<?xml version="1.0" encoding="UTF-8" standalone="no"?>
<!-- Created with Inkscape (http://www.inkscape.org/) -->

<svg
   version="1.1"
   id="svg1"
   width="295.94666"
   height="293.42667"
   viewBox="0 0 295.94666 293.42667"
   sodipodi:docname="hector_logo.eps"
   xmlns:inkscape="http://www.inkscape.org/namespaces/inkscape"
   xmlns:sodipodi="http://sodipodi.sourceforge.net/DTD/sodipodi-0.dtd"
   xmlns="http://www.w3.org/2000/svg"
   xmlns:svg="http://www.w3.org/2000/svg">
  <defs
     id="defs1" />
  <sodipodi:namedview
     id="namedview1"
     pagecolor="#ffffff"
     bordercolor="#000000"
     borderopacity="0.25"
     inkscape:showpageshadow="2"
     inkscape:pageopacity="0.0"
     inkscape:pagecheckerboard="0"
     inkscape:deskcolor="#d1d1d1">
    <inkscape:page
       x="0"
       y="0"
       inkscape:label="1"
       id="page1"
       width="295.94666"
       height="293.42667"
       margin="0"
       bleed="0" />
  </sodipodi:namedview>
  <g
     id="g1"
     inkscape:groupmode="layer"
     inkscape:label="1">
    <g
       id="group-R5">
      <path
         id="path2"
         d="m 1830.41,688.039 214.22,119.793 C 1961.72,585.059 1799.88,403.238 1598.21,288.449 l 10.26,83.223 c 0,0 -244.5,-56.883 -409.58,-46.723 -3,0.192 -5.94,0.41 -8.87,0.621 -1.86,0.25 -4.64,-1.109 -8.22,-3.742 -14.34,17.832 -32.01,32.942 -52.06,44.16 -1.58,0.864 -3.19,1.641 -4.76,2.442 l -9.58,4.73 -9.92,3.918 c -2.35,0.934 -7.2,2.75 -9.58,3.492 l -146.58,49.899 -36.644,12.453 c -14.153,4.699 -28.211,9.609 -41,17.058 -4.453,3.09 -9.828,5.93 -14.031,9.579 l -6.641,5.281 c -3.617,3.058 -7.262,7.082 -10.754,10.262 -6.055,6.886 -11.805,14.058 -16.715,21.839 l -4.172,7.36 c -0.679,1.23 -1.453,2.437 -2.07,3.711 l -1.73,3.859 -3.493,7.688 c -11.183,28.832 -12.945,61.152 -4.203,90.812 4.512,15.949 11.528,35.231 18.324,53.391 3.618,9.707 7.168,19.07 10.227,27.41 4.977,13.156 9.145,29.078 9.797,44.187 0.801,15.379 -2.41,31.789 -6.953,45.879 -5.285,16.621 -10.258,29.852 -14.278,45.301 -1.726,5.563 -2.531,11.242 -1.046,16.871 3.613,14.981 21.195,29.539 35.343,37.442 0.371,0.277 27.719,14.308 28.891,14.929 0,0.059 -17.672,24.071 -17.672,24.129 -16.594,22.09 -27.934,43.012 -24.566,72.18 l 0.898,11.71 0.094,1.17 c 9.824,5.87 21.597,10.42 33.058,22.16 15.512,15.85 21.969,35.75 23.668,56.45 2.719,25.89 -6.64,53.39 -23.976,72.42 -10.106,11.31 -21.535,20.18 -35.071,26.73 -2.531,1.51 -8.621,4.63 -12.234,6.92 -12.484,7.57 -25.832,16.16 -38.281,25.74 -15.789,12.14 -30.098,25.92 -39.336,41.43 -2.688,5.07 -4.852,10.17 -4.449,15.55 0.867,4.48 2.164,6.55 6.148,11.21 11.649,12.98 33.867,22.37 49.84,30.22 62.199,31.83 115.066,78.64 161.164,130.39 23.051,26.14 45.053,53.42 62.883,83.43 36.86,60.37 58.55,128.75 68.37,198.52 8.81,56.63 32.54,108.05 65.97,152.91 3.52,-3.8 7.11,-7.66 10.66,-11.55 52.62,-57.48 109.1,-125.42 140.28,-178.87 56.17,15.91 287.94,47.21 406,15.94 0,0 10.28,146.06 -4.7,238.16 192.65,-152.02 327.68,-373.46 372.31,-619.69 -79.86,28.05 -194.58,63.62 -194.58,63.62 L 1711.98,960.41 Z M 1189.06,186.75 c -1.55,-9.711 -3.41,-19.32 -6.02,-28.629 -119.83,-10.582 -243.606,0.27 -366.247,35.988 -82.492,23.45 -161.227,58.2 -234.277,102.321 20.754,97.09 46.332,217.57 61.468,288.929 20.301,96.379 53.579,254.731 73.477,349.653 1.918,9.238 4.664,20.668 4.48,30.117 2.196,57.661 -42.425,105.681 -100.449,105.001 -42.269,-0.41 -84.445,-25.68 -100.762,-64.98 -4.507,-9.798 -6.917,-23.611 -7.968,-33.31 l -7.852,-55.52 c -6.117,-40.48 -12.883,-83.922 -20.605,-125.539 0,-0.133 -0.125,-0.191 -0.219,-0.133 -33,15.301 -73.848,2.84 -93.684,-26.757 -0.031,-0.09 -0.121,-0.09 -0.183,-0.063 -31.485,13.383 -69.274,3.402 -90.008,-23.879 -0.063,-0.058 -0.152,-0.058 -0.215,-0.027 -35.086,16.359 -79.516,2.949 -98.598,-32.051 -21.406,42.66 -39.734,86.93 -54.597,132.481 -165.1721,491.598 81.465,1038.418 559.668,1241.038 170.558,73.59 362.121,98.26 545.951,71.36 29.47,-4.2 58.46,-9.75 86.95,-16.52 -2.18,-0.07 -4.37,-0.13 -6.66,-0.24 -15.79,-0.74 -28.99,-8.23 -49.6,-12.12 -16.13,-6.58 -36.73,-13.46 -51.78,-23.85 -53.89,-36.86 -102.43,-82.56 -140.99,-135.11 -47.58,-64.98 -79.84,-140.4 -87.72,-222.47 -5.378,-56.05 -21.042,-111.57 -48.171,-161.01 -14.027,-26.2 -31.949,-50.12 -50.519,-73.2 -28.457,-34.94 -60.188,-67.6 -96.278,-94.42 -17.457,-13.29 -38.777,-25.4 -58.121,-35.6 -34.078,-18.75 -68.468,-50.42 -69.304,-93.34 0,-29.79 13.566,-54.66 32.66,-75.64 h 0.031 c 19.062,-20.98 43.781,-38 66.031,-51.97 12.203,-7.35 24.563,-14.15 37.449,-20.3 14.86,-6.06 28.395,-19.25 28.672,-35.87 0.403,-7.91 -1.144,-19.01 -6.117,-24.63 -2.07,-2.44 -5.5,-4.97 -12.793,-9.15 -15.355,-7.97 -30.34,-22.43 -32.691,-41.4 -0.524,-3.03 -0.617,-6.15 -0.739,-9.02 -0.433,-13.69 -1.238,-26.601 0.989,-41.191 2.75,-19.988 11.246,-38.371 22.121,-55.027 -27.621,-22.281 -47.797,-55.371 -37.879,-91.641 5.809,-23.179 16.469,-45.519 21.504,-67.609 3.027,-15.883 0.125,-29.852 -5.348,-45.512 -2.437,-7.14 -5.344,-15.301 -8.308,-23.789 -6.028,-17.211 -12.485,-35.812 -16.625,-50.301 -2.379,-7.851 -4.758,-17.859 -6.364,-25.929 -0.496,-3.86 -1.668,-12.141 -2.132,-16.282 -0.805,-11.621 -0.555,-23.847 0.496,-35.527 2.16,-17.184 6.609,-34.023 13.07,-50.031 1.355,-2.93 5.773,-12.082 7.012,-14.742 1.882,-3.668 6.273,-10.219 8.343,-14.047 6.457,-9.864 13.996,-18.953 21.996,-27.602 4.575,-4.082 9.243,-9.082 14.032,-12.851 l 8.621,-6.61 c 2.594,-2.008 6.023,-4.508 8.957,-6.121 5.223,-3.398 13.316,-8.129 18.91,-10.566 12.145,-6.301 25.895,-10.192 38.746,-14.461 L 937.766,395.34 1085.3,348.41 c 2.2,-0.648 6.52,-2.14 8.66,-2.969 l 8.12,-3 7.85,-3.703 c 5.19,-2.289 10.26,-5.687 15.14,-8.5 12.48,-8.187 23.64,-18.316 33.06,-29.906 18.14,-22.281 29.79,-49.781 32.01,-78.543 1.33,-11.648 0.37,-23.269 -1.08,-35.039 z M 234.055,648.012 c 1.535,9.09 2.972,17.609 4.297,25.449 1.546,17.168 17.398,29.75 34.546,26.75 7.043,-1.199 13.379,-5.031 17.829,-10.66 2.101,-2.68 3.242,-5.961 3.242,-9.332 0,-0.707 -0.063,-1.418 -0.153,-2.129 l -11.894,-82 c -1.332,-9.149 5.035,-17.649 14.18,-18.969 9.144,-1.332 17.644,5.027 18.972,14.18 l 14.305,98.808 2.285,9.52 c 2.723,15.383 18.57,26.32 33.899,23.422 6.828,-1.211 13.07,-4.821 17.546,-10.231 2.661,-3.211 4.082,-7.199 4.082,-11.308 0,-0.864 -0.062,-1.703 -0.187,-2.532 l -11.805,-81.359 c -1.355,-9.641 5.75,-18.539 15.668,-19.121 8.805,-0.5 16.344,6.422 17.613,15.172 l 16.993,117.348 c 0.308,0.8 0.648,1.671 1.144,2.75 9.641,21.75 41.156,22.8 52.309,1.851 3.152,-5 4.82,-10.812 4.82,-16.711 0,-1.488 -0.094,-2.941 -0.308,-4.422 l -10.133,-69.957 c -1.391,-9.64 5.715,-18.531 15.633,-19.121 8.835,-0.5 16.343,6.43 17.613,15.168 l 6.023,41.684 9.547,60.648 c 6.984,53.77 17.336,112.262 27.375,165.899 l 10.754,55 c 2.039,10.531 3.246,14.98 6.148,20.703 10.415,18.198 28.551,24.898 46.102,23.228 27.715,-2.59 47.645,-27.931 45.234,-55.638 l -2.996,-23.641 C 630.246,736.941 588.238,511.672 560.023,310.449 427.203,395.578 314.48,512.078 234.055,648.012 Z M 2180.46,1402.75 c -69.32,250.75 -234.82,465.1 -450.85,598.9 -180.38,125.52 -398.55,199.25 -628.97,198.94 C 672.086,2207.07 263.578,1940.3 93.5898,1546.87 -128.723,1046.7 56.9336,451.191 524.172,165.25 625.355,102.371 737.586,56.3398 853.574,29.2617 1340.56,-83.3594 1800.64,139.191 2036.57,523.82 c 30.27,44.461 57.26,91.16 80.39,139.41 8.07,17.239 15.67,34.7 23.33,52.122 3.56,8.898 10.14,26.539 13.75,35.468 6.52,16.719 15.76,45.801 21.29,63.071 4.08,15.109 9.73,35.281 13.78,50.418 2.47,10.453 8.56,39.832 11.25,51.05 30.77,160.951 24.93,329.651 -19.9,487.391"
         style="fill:#ffffff;fill-opacity:1;fill-rule:nonzero;stroke:none"
         transform="matrix(0.13333333,0,0,-0.13333333,0,293.42667)" />
      <path
         id="path3"
         d="m 814.266,1229.78 c 7.57,-5.32 16.097,-10.85 26.109,-16.9 2.039,-1.3 5.004,-2.91 7.383,-4.2 1.605,-0.9 3.058,-1.68 4.14,-2.32 14.895,-7.3 27.747,-17.12 39.301,-30.07 20.52,-22.52 30.961,-54.01 27.84,-84.13 -2.254,-26.98 -11.68,-49.13 -28.023,-65.85 -10.289,-10.53 -20.793,-16.22 -29.262,-20.76 -0.031,0 -0.031,-0.03 -0.063,-0.03 l -0.367,-4.91 -0.031,-0.28 c -2.719,-23.521 5.84,-40.228 21.566,-61.15 l 3.09,-4.11 v -0.121 c 1.606,-2.23 3.739,-5.097 5.84,-7.969 11.832,-16.101 11.832,-16.101 11.832,-21.199 v -9.332 l -8.25,-4.359 c -0.34,-0.149 -2.808,-1.418 -6.18,-3.149 -6.55,-3.371 -19.988,-10.293 -22.152,-11.461 l -0.215,-0.128 c -13.969,-7.782 -25.957,-19.653 -27.871,-27.563 l -0.094,-0.34 c -0.523,-2.008 -0.246,-4.73 0.868,-8.34 l 0.214,-0.679 c 2.563,-9.891 5.653,-19.102 8.899,-28.86 1.668,-4.968 3.398,-10.129 5.16,-15.672 4.047,-12.539 8.684,-31.699 7.633,-51.347 -0.805,-18.942 -6.305,-37.039 -10.754,-48.852 -1.887,-5.129 -4.047,-10.84 -6.242,-16.777 l -3.953,-10.563 c -0.125,-0.339 -0.25,-0.679 -0.371,-1.019 116.546,-53.149 253.337,-116.02 253.337,-116.02 0,0 163.48,208.059 293.41,356.102 -66.62,92.348 -247.93,396.878 -247.93,396.878 0,0 -196.235,-46.31 -324.864,-74.52"
         style="fill:#ffffff;fill-opacity:1;fill-rule:nonzero;stroke:none"
         transform="matrix(0.13333333,0,0,-0.13333333,0,293.42667)" />
    </g>
  </g>
</svg>
